<?xml version="1.0" encoding="utf-8"?>
<!-- Generator: Adobe Illustrator 27.2.0, SVG Export Plug-In . SVG Version: 6.00 Build 0)  -->
<svg version="1.1" id="Layer_1" xmlns="http://www.w3.org/2000/svg" xmlns:xlink="http://www.w3.org/1999/xlink" x="0px" y="0px"
	 viewBox="0 0 543.3 147.9" style="enable-background:new 0 0 543.3 147.9;" xml:space="preserve">
<style type="text/css">
	.st0{fill:none;stroke:#2C406F;stroke-width:3;stroke-miterlimit:10;}
	.st1{fill:none;stroke:#21409A;stroke-width:3;stroke-miterlimit:10;}
	.st2{fill:none;stroke:#006193;stroke-width:5;stroke-miterlimit:10;}
	.st3{fill:none;stroke:#006838;stroke-width:3;stroke-miterlimit:10;}
</style>
<path class="st0" d="M29.1,129.5c9.7-10,19.4-20,29.1-30L96,121.9l63.5-52c27.2,22.8,54.4,45.6,81.6,68.4
	c26.4-12.9,52.8-25.8,79.2-38.7l41.9,19.6l95.9-49.3c15.3,16.4,30.6,32.9,45.9,49.3"/>
<path class="st1" d="M520.7,123.8c-15.3-16.4-30.6-32.9-45.9-49.3l-96,49.3l-41.9-19.6c-26.4,12.9-52.8,25.8-79.2,38.7
	c-27.2-22.8-54.4-45.6-81.6-68.4c-21.2,17.3-42.3,34.7-63.5,52c-12.6-7.4-25.2-14.9-37.8-22.3c-9.2,9.3-18.4,18.5-27.6,27.8"/>
<path class="st2" d="M521.9,123.2C506.6,106.8,491.3,90.3,476,74l-96,49.3l-41.9-19.6c-26.4,12.9-52.8,26.8-79.2,39.7
	c-27.3-22.9-54.3-46.5-81.6-69.4c-21.2,17.3-42.3,34.7-63.5,52c-12.6-7.4-25.2-14.9-37.8-22.3c-10,9.8-20,19.5-29.9,29.3"/>
<path class="st3" d="M49,129.1c4.4-4.1,9-8.2,13.9-12.4c7.5-6.3,14.8-12,21.8-17.1l37.8,22.3l63.5-52c27.2,22.8,54.4,45.6,81.6,68.4
	c26.4-12.9,52.8-25.8,79.2-38.7l41.9,19.6l96-49.3c15.3,16.4,30.6,32.9,45.9,49.3"/>
</svg>
